<?xml version="1.0" standalone="no"?>
<!DOCTYPE svg PUBLIC "-//W3C//DTD SVG 20010904//EN"
 "http://www.w3.org/TR/2001/REC-SVG-20010904/DTD/svg10.dtd">
<svg version="1.0" xmlns="http://www.w3.org/2000/svg"
 width="500.000000pt" height="500.000000pt" viewBox="0 0 500.000000 500.000000"
 preserveAspectRatio="xMidYMid meet">

<g transform="translate(0.000000,500.000000) scale(0.100000,-0.100000)"
fill="#000000" stroke="none" >
<path d="M2171 4774 c-186 -50 -329 -215 -367 -424 -38 -213 33 -429 191 -579
215 -203 512 -201 705 5 257 275 170 762 -170 952 -103 58 -247 76 -359 46z"/>
<path d="M3925 3911 c-140 -38 -238 -96 -337 -198 -142 -147 -206 -320 -195
-531 15 -297 205 -544 492 -639 71 -24 96 -27 215 -27 120 0 144 3 215 27 113
38 198 90 285 177 134 134 199 281 207 470 6 136 -13 227 -72 346 -82 168
-232 299 -410 360 -108 37 -294 44 -400 15z m387 -83 c138 -52 265 -155 336
-271 82 -136 114 -333 78 -477 -88 -352 -438 -568 -780 -480 -232 59 -417 245
-471 472 -33 140 -10 324 55 447 83 155 238 279 410 326 89 24 286 15 372 -17z"/>
<path d="M3990 3755 c-199 -45 -357 -192 -414 -385 -20 -65 -22 -206 -5 -276
22 -93 70 -175 144 -250 110 -111 234 -164 385 -164 302 0 540 239 540 542 0
156 -49 275 -156 382 -129 130 -324 189 -494 151z m219 -186 c28 -6 53 -14 56
-18 3 -6 -14 -128 -20 -138 -1 -2 -19 6 -40 17 -78 40 -182 15 -224 -53 -12
-19 -21 -39 -21 -46 0 -8 40 -11 130 -11 72 0 130 -4 130 -9 0 -5 -3 -23 -6
-40 l-6 -31 -134 0 -134 0 0 -30 0 -30 125 0 c69 0 125 -4 125 -9 0 -5 -3 -23
-6 -40 l-6 -31 -110 0 -110 0 7 -27 c9 -39 63 -92 106 -105 49 -14 119 -3 163
27 l36 24 0 -78 0 -79 -31 -11 c-47 -16 -188 -14 -242 5 -66 22 -134 87 -168
159 -16 33 -29 66 -29 73 0 7 -14 12 -35 12 -38 0 -38 1 -29 49 5 24 12 31 30
31 20 0 24 5 24 30 0 27 -3 30 -30 30 -32 0 -33 2 -24 49 6 26 11 31 36 31 18
0 31 6 34 18 58 182 214 272 403 231z"/>
<path d="M2532 3549 c-826 -423 -858 -439 -903 -439 -24 0 -305 45 -625 100
-320 55 -605 100 -633 100 -118 0 -211 -96 -211 -217 0 -54 26 -118 59 -147
l21 -19 0 -1336 c0 -1194 2 -1339 16 -1359 17 -24 53 -29 72 -10 9 9 12 320
12 1336 l0 1324 23 -5 c12 -3 317 -56 677 -118 571 -97 660 -110 695 -101 22
6 171 78 330 160 160 82 292 148 294 146 1 -1 -9 -52 -23 -111 -41 -172 -56
-295 -56 -463 0 -169 9 -250 41 -378 11 -46 18 -86 15 -89 -3 -3 -180 -20
-393 -39 -213 -18 -403 -36 -422 -39 -60 -11 -123 -47 -182 -104 -65 -64 -855
-1165 -876 -1221 -16 -47 -16 -71 3 -127 26 -77 68 -129 119 -148 62 -24 151
-17 199 16 25 16 155 189 407 541 220 308 389 534 416 558 28 25 66 46 97 55
28 8 319 37 646 64 327 28 619 56 649 62 105 22 174 117 171 232 -1 34 -1 67
0 72 1 6 2 14 1 19 -1 4 7 70 18 145 35 242 44 362 44 576 0 318 -35 524 -129
748 -25 62 -56 141 -69 175 -39 107 -110 161 -213 162 -49 0 -74 -11 -290
-121z"/>
<path d="M3416 2329 c-57 -45 -73 -126 -36 -187 39 -63 24 -62 727 -62 615 0
639 1 670 20 39 23 63 67 63 115 0 48 -24 92 -63 115 -31 19 -55 20 -683 20
-645 0 -652 0 -678 -21z"/>
<path d="M3423 1960 c-82 -50 -84 -172 -4 -229 29 -21 37 -21 684 -21 648 0
655 0 681 21 81 64 72 190 -17 232 -32 15 -98 17 -674 17 -615 0 -639 -1 -670
-20z"/>
<path d="M3445 1596 c-52 -23 -78 -60 -83 -119 -4 -47 -1 -57 24 -86 52 -63
33 -61 714 -61 670 0 659 -1 709 54 18 18 26 41 29 79 4 47 1 57 -24 86 -52
63 -33 61 -716 61 -497 -1 -629 -3 -653 -14z"/>
<path d="M1713 1210 c-63 -38 -85 -140 -42 -194 46 -58 22 -56 721 -56 620 0
644 1 675 20 85 52 83 174 -3 231 -28 18 -59 19 -674 19 -622 0 -646 -1 -677
-20z"/>
<path d="M3430 1217 c-64 -32 -89 -130 -50 -194 39 -65 12 -63 722 -63 620 0
644 1 675 20 84 51 84 179 0 230 -31 19 -55 20 -677 20 -496 0 -651 -3 -670
-13z"/>
<path d="M1721 843 c-44 -22 -71 -67 -71 -121 0 -57 25 -98 75 -122 40 -19 64
-20 666 -20 574 0 627 1 659 18 108 54 104 201 -7 248 -26 11 -150 14 -660 14
-565 0 -631 -2 -662 -17z"/>
<path d="M3433 845 c-50 -22 -75 -69 -70 -134 3 -47 9 -59 39 -87 28 -25 48
-34 89 -39 30 -3 324 -5 654 -3 559 3 603 4 628 21 91 59 87 196 -6 240 -32
15 -97 17 -669 17 -521 -1 -639 -3 -665 -15z"/>
<path d="M1750 480 c-20 -5 -49 -24 -67 -44 -28 -30 -33 -43 -33 -83 0 -30 7
-60 20 -81 39 -63 24 -62 722 -62 594 0 635 1 667 18 93 50 92 188 -1 239 -31
17 -77 18 -653 20 -341 1 -636 -2 -655 -7z"/>
<path d="M3445 476 c-49 -22 -77 -60 -83 -112 -6 -60 16 -103 68 -133 38 -21
39 -21 682 -19 625 3 644 4 670 23 88 64 71 198 -29 241 -47 20 -1263 20
-1308 0z"/>
</g>
</svg>
